<mxfile host="app.diagrams.net" modified="2024-02-06T15:06:36.700Z" agent="Mozilla/5.0 (Windows NT 10.0; Win64; x64) AppleWebKit/537.36 (KHTML, like Gecko) Chrome/120.0.0.0 Safari/537.36 OPR/106.0.0.0" version="23.1.1" etag="uKhaF0aNkiLP5y18H35B" type="github">
  <diagram name="Page-1" id="e7dkRCUW429l9coW0tV4">
    <mxGraphModel>
      <root>
        <mxCell id="0" />
        <mxCell id="1" parent="0" />
      </root>
    </mxGraphModel>
  </diagram>
</mxfile>
